<svg width="122" height="32" xmlns="http://www.w3.org/2000/svg" version="1.1" clip-rule="evenodd">
 <g>
  <title>Layer 1</title>
  <g stroke="null" id="svg_87">
   <g stroke="null" id="svg_1">
    <path stroke="null" fill="#fefefe" d="m-3.4506,-4.73977c13.88514,0 27.77028,0 41.65541,0c0,13.65864 0,27.31729 0,40.97593c-13.88514,0 -27.77028,0 -41.65541,0c0,-13.65864 0,-27.31729 0,-40.97593z" id="svg_2"/>
   </g>
   <g stroke="null" id="svg_3">
    <path stroke="null" fill="#666667" d="m24.68995,2.36273c-0.04054,-0.00596 -0.07146,0.00922 -0.09257,0.04553c0.27464,0.19127 0.44432,0.44926 0.50912,0.77399c0.06174,1.88189 0.06174,3.76368 0,5.64557c-0.01555,-1.86705 -0.06184,-3.71852 -0.13885,-5.55451c-0.16505,-0.45078 -0.47367,-0.76948 -0.92568,-0.9561c-4.16554,-0.06071 -8.33108,-0.06071 -12.49663,0c-0.38064,0.16195 -0.6737,0.41995 -0.87939,0.77399c-0.04628,1.91194 -0.06174,3.82415 -0.04628,5.73663c-0.09257,0 -0.18514,0 -0.2777,0c0.03054,-1.80658 -0.00028,-3.59741 -0.09257,-5.3724c0.09905,-0.63 0.4384,-1.10046 1.01824,-1.41139c4.31985,-0.06071 8.63962,-0.06071 12.95947,0c0.17088,0.09377 0.32519,0.2 0.46284,0.3187l0,-0.00001z" id="svg_4"/>
   </g>
   <g stroke="null" id="svg_5">
    <path stroke="null" fill="#202020" d="m24.96765,3.2733c0,1.85147 0,3.70304 0,5.55451c-0.09257,0 -0.18514,0 -0.2777,0c0.03054,-1.80658 -0.00028,-3.59741 -0.09257,-5.3724c-0.0996,-0.38651 -0.34639,-0.64452 -0.74054,-0.77399c-4.07297,-0.06071 -8.14594,-0.06071 -12.21893,0c-0.25095,0.11479 -0.45154,0.28173 -0.60169,0.50082c-0.04628,1.85129 -0.06174,3.70277 -0.04628,5.55451c-0.13505,-0.0061 -0.25844,0.02422 -0.37027,0.09106c-0.01546,-1.91248 0,-3.82469 0.04628,-5.73663c0.20569,-0.35404 0.49876,-0.61204 0.87939,-0.77399c4.16554,-0.06071 8.33108,-0.06071 12.49663,0c0.452,0.18662 0.76062,0.50532 0.92568,0.9561l0,0.00001z" id="svg_6"/>
   </g>
   <g stroke="null" id="svg_7">
    <path stroke="null" fill="#fdfdfd" d="m24.59738,3.45542c0,1.76042 0,3.52092 0,5.28134c-0.12339,0 -0.24688,0 -0.37027,0c-1.44424,-0.19905 -2.89441,-0.35084 -4.35067,-0.45529c0.02851,-0.22072 -0.00241,-0.43316 -0.09257,-0.6374c-0.6788,0.36423 -1.35769,0.72846 -2.03649,1.09269c0.65316,0.45074 1.34742,0.84529 2.08277,1.18375c0.046,-0.21034 0.06137,-0.42278 0.04628,-0.6374c1.54902,0.09179 3.09185,0.24358 4.62838,0.45529c0.09201,3.96956 0.12293,7.94578 0.09257,11.92855c-1.7611,0.32507 -3.5508,0.50719 -5.36892,0.54635c0,0.33391 0,0.66773 0,1.00163c1.79942,-0.04671 3.58903,-0.19851 5.36892,-0.45529c0.01546,1.82143 0,3.64258 -0.04628,5.46346c-0.10803,0.22764 -0.2777,0.39455 -0.50912,0.50082c-4.19636,0.06073 -8.39282,0.06073 -12.5892,0c-0.21198,-0.16181 -0.36629,-0.35913 -0.46284,-0.59187c0,-1.82115 0,-3.6423 0,-5.46346c1.1956,0.20105 2.39898,0.35276 3.61013,0.45529c0.32047,0.08942 0.65991,0.11974 1.01824,0.09106c-0.02795,0.23302 0.00296,0.44554 0.09257,0.6374c0.70426,-0.37698 1.41397,-0.75632 2.12905,-1.13822c-0.68509,-0.42797 -1.39481,-0.80731 -2.12905,-1.13822c-0.08896,0.16072 -0.11987,0.34283 -0.09257,0.54635c-0.2777,0 -0.55541,0 -0.83311,0c-1.27817,-0.06192 -2.54329,-0.21371 -3.79527,-0.45529c-0.01546,-3.9763 0,-7.95252 0.04628,-11.92855c1.75332,-0.32599 3.52757,-0.47778 5.32263,-0.45529c0,-0.33391 0,-0.66773 0,-1.00163c-1.08609,-0.01994 -2.16599,0.0407 -3.23986,0.18212c-0.45487,-0.01257 -0.88689,0.04808 -1.29595,0.18212c-0.27937,0.01858 -0.55707,0.0489 -0.83311,0.09106c-0.01546,-1.85175 0,-3.70322 0.04628,-5.55451c0.15015,-0.21908 0.35074,-0.38603 0.60169,-0.50082c4.07297,-0.06071 8.14594,-0.06071 12.21893,0c0.39415,0.12947 0.64094,0.38748 0.74054,0.77399l0,-0.00001z" id="svg_8"/>
   </g>
   <g stroke="null" id="svg_9">
    <path stroke="null" fill="#85ccfe" d="m24.96765,2.54484c2.7326,0.07635 4.84619,1.22975 6.34088,3.46019c1.35741,2.74666 1.14136,5.35692 -0.64797,7.83095c-0.15838,0.23183 -0.35888,0.41395 -0.60169,0.54635c-0.15838,-0.9052 -0.40526,-1.78546 -0.74054,-2.64067c0.28881,-0.48534 0.22707,-0.92551 -0.18514,-1.32034c-0.2839,-0.19923 -0.56161,-0.39655 -0.83311,-0.59187c-0.75563,-1.28992 -1.74296,-2.38261 -2.96216,-3.27807c0.01546,-1.15379 0,-2.30719 -0.04628,-3.46019c-0.12904,-0.17187 -0.23697,-0.35399 -0.32399,-0.54635z" id="svg_10"/>
   </g>
   <g stroke="null" id="svg_11">
    <path stroke="null" fill="#444341" d="m10.24941,3.45542c0.09229,1.77498 0.12311,3.56582 0.09257,5.3724c-0.06174,0 -0.12339,0 -0.18514,0c-0.02536,-0.43371 0.00546,-0.85867 0.09257,-1.27481c0,-0.33391 0,-0.66773 0,-1.00163c0,-1.03196 0,-2.06401 0,-3.09596l0,0.00001z" id="svg_12"/>
   </g>
   <g stroke="null" id="svg_13">
    <path stroke="null" fill="#5c5d5e" d="m24.59738,3.45542c0.09229,1.77498 0.12311,3.56582 0.09257,5.3724c-0.17726,0.02586 -0.33148,-0.00446 -0.46284,-0.09106c0.12339,0 0.24688,0 0.37027,0c0,-1.76042 0,-3.52092 0,-5.28134z" id="svg_14"/>
   </g>
   <g stroke="null" id="svg_15">
    <path stroke="null" fill="#565658" d="m24.68995,2.36273c0.09257,0.06071 0.18514,0.12141 0.2777,0.18212c0.08701,0.19236 0.19495,0.37448 0.32399,0.54635c0.04628,1.153 0.06174,2.3064 0.04628,3.46019c-0.02749,0.67565 0.00333,1.34347 0.09257,2.00327c0.04758,0.48871 -0.10664,0.57976 -0.46284,0.27317c0,-1.85147 0,-3.70304 0,-5.55451c0.07701,1.836 0.1233,3.68747 0.13885,5.55451c0.06174,-1.88189 0.06174,-3.76368 0,-5.64557c-0.0648,-0.32473 -0.23448,-0.58272 -0.50912,-0.77399c0.02111,-0.03631 0.05202,-0.05149 0.09257,-0.04553l0,-0.00001z" id="svg_16"/>
   </g>
   <g stroke="null" id="svg_17">
    <path stroke="null" fill="#36a9fb" d="m10.24941,6.55138c0,0.33391 0,0.66773 0,1.00163c-0.17977,0.41486 -0.24142,0.87015 -0.18514,1.36586c-0.99297,0.19405 -1.94947,0.49763 -2.86959,0.91058c0.76368,-1.3187 1.78193,-2.41139 3.05473,-3.27807z" id="svg_18"/>
   </g>
   <g stroke="null" id="svg_19">
    <path stroke="null" fill="#34a8fa" d="m25.33792,6.55138c1.2192,0.89546 2.20654,1.98815 2.96216,3.27807c-0.83117,-0.33145 -1.69519,-0.58942 -2.59189,-0.77399c-0.1345,-0.15015 -0.22707,-0.31706 -0.2777,-0.50082c-0.08924,-0.65981 -0.12006,-1.32762 -0.09257,-2.00327z" id="svg_20"/>
   </g>
   <g stroke="null" id="svg_21">
    <path stroke="null" fill="#567da6" d="m10.24941,7.55301c-0.08711,0.41613 -0.11793,0.8411 -0.09257,1.27481c0,0.06073 -0.03082,0.09106 -0.09257,0.09106c-0.05628,-0.49572 0.00537,-0.95101 0.18514,-1.36586z" id="svg_22"/>
   </g>
   <g stroke="null" id="svg_23">
    <path stroke="null" fill="#062e50" d="m24.13454,8.6457c0.13136,0.0866 0.28557,0.11692 0.46284,0.09106c0.09257,0 0.18514,0 0.2777,0c0.3562,0.30659 0.51042,0.21553 0.46284,-0.27317c0.05064,0.18375 0.1432,0.35066 0.2777,0.50082c0.8967,0.18457 1.76073,0.44254 2.59189,0.77399c0.2715,0.19532 0.5492,0.39264 0.83311,0.59187c0.4122,0.39483 0.47394,0.835 0.18514,1.32034c-0.15431,0.12138 -0.30853,0.24285 -0.46284,0.36423c-0.03082,0 -0.06174,0 -0.09257,0c0.35732,-0.43453 0.26474,-0.78355 -0.2777,-1.04716c-0.93919,-0.48497 -1.92661,-0.834 -2.96216,-1.04716c-0.14274,-0.07293 -0.29696,-0.10326 -0.46284,-0.09106c-0.03082,0 -0.06174,0 -0.09257,0c-0.06563,-0.08232 -0.15819,-0.11264 -0.2777,-0.09106c-0.03166,-0.07631 -0.09331,-0.10672 -0.18514,-0.09106c-1.53653,-0.21171 -3.07935,-0.3635 -4.62838,-0.45529c0.01508,0.21462 -0.00028,0.42706 -0.04628,0.6374c-0.73535,-0.33846 -1.42961,-0.73301 -2.08277,-1.18375c0.6788,-0.36423 1.35769,-0.72846 2.03649,-1.09269c0.09016,0.20424 0.12108,0.41668 0.09257,0.6374c1.45627,0.10444 2.90644,0.25624 4.35067,0.45529z" id="svg_24"/>
   </g>
   <g stroke="null" id="svg_25">
    <path stroke="null" fill="#3e556e" d="m13.119,8.46359c-0.40906,0.13404 -0.84107,0.19468 -1.29595,0.18212c0.40906,-0.13404 0.84107,-0.19468 1.29595,-0.18212z" id="svg_26"/>
   </g>
   <g stroke="null" id="svg_27">
    <path stroke="null" fill="#173554" d="m10.98995,21.66694c-0.03082,0 -0.06174,0 -0.09257,0c0.03082,-3.97667 0,-7.95279 -0.09257,-11.92855c-0.06322,0.03306 -0.12497,0.06337 -0.18514,0.09106c-0.09257,0 -0.18514,0 -0.2777,0c-0.06174,0 -0.09257,0.03032 -0.09257,0.09106c-1.11933,0.15362 -2.1684,0.50264 -3.1473,1.04716c-0.61715,0.39455 -0.61715,0.7892 0,1.18375c-0.03082,0.01521 -0.06174,0.03032 -0.09257,0.04553c-0.30825,-0.15198 -0.55512,-0.36441 -0.74054,-0.6374c-0.13783,-0.34083 -0.12238,-0.67473 0.04628,-1.00163c0.2566,-0.29894 0.54976,-0.54179 0.87939,-0.72846c0.92012,-0.41295 1.87662,-0.71653 2.86959,-0.91058c0.06174,0 0.09257,-0.03032 0.09257,-0.09106c0.06174,0 0.12339,0 0.18514,0c0.09257,0 0.18514,0 0.2777,0c0.11183,-0.06683 0.23522,-0.09716 0.37027,-0.09106c0.27603,-0.04216 0.55374,-0.07248 0.83311,-0.09106c0.45487,0.01257 0.88689,-0.04808 1.29595,-0.18212c1.07388,-0.14141 2.15377,-0.20206 3.23986,-0.18212c0,0.33391 0,0.66773 0,1.00163c-1.79507,-0.02249 -3.56931,0.1293 -5.32263,0.45529c-0.04628,3.97603 -0.06174,7.95225 -0.04628,11.92855z" id="svg_28"/>
   </g>
   <g stroke="null" id="svg_29">
    <path stroke="null" fill="#5a5b5b" d="m24.50481,9.7384c0.09183,-0.01566 0.15348,0.01475 0.18514,0.09106c0,3.9458 0,7.89169 0,11.83749c-0.03082,0 -0.06174,0 -0.09257,0c0.03036,-3.98277 -0.00055,-7.95898 -0.09257,-11.92855l0,0.00001z" id="svg_30"/>
   </g>
   <g stroke="null" id="svg_31">
    <path stroke="null" fill="#597fa9" d="m10.15684,10.55791c-0.02795,0.76652 0.00287,1.5254 0.09257,2.27644c-0.12265,-0.34383 -0.1843,-0.72327 -0.18514,-1.13822c0.00009,-0.39583 0.03092,-0.77526 0.09257,-1.13822z" id="svg_32"/>
   </g>
   <g stroke="null" id="svg_33">
    <path stroke="null" fill="#33a8fd" d="m10.24941,9.92051c0.02795,0.23302 -0.00296,0.44554 -0.09257,0.6374c-0.06165,0.36296 -0.09247,0.74239 -0.09257,1.13822c0.00083,0.41495 0.06248,0.79439 0.18514,1.13822c0,2.88352 0,5.76695 0,8.65048c-1.34926,-0.1232 -2.53718,-0.60881 -3.56385,-1.45692c-0.0909,-0.29822 -0.01379,-0.54097 0.23142,-0.72846c0.49801,-0.27499 1.0225,-0.50264 1.57365,-0.68293c-0.63594,0.05527 -1.19134,0.28292 -1.66622,0.68293c-0.33454,0.163 -0.58132,0.40584 -0.74054,0.72846c-0.14888,-0.24676 -0.25689,-0.51994 -0.32399,-0.81952c-0.10449,-0.5295 -0.21249,-1.04543 -0.32399,-1.54798c-0.23835,-2.1048 0.03935,-4.13848 0.83311,-6.10086c0.18542,0.27299 0.43229,0.48543 0.74054,0.6374c0.03082,-0.01521 0.06174,-0.03032 0.09257,-0.04553c-0.61715,-0.39455 -0.61715,-0.7892 0,-1.18375c0.9789,-0.54453 2.02797,-0.89355 3.1473,-1.04716l0,0.00001z" id="svg_34"/>
   </g>
   <g stroke="null" id="svg_35">
    <path stroke="null" fill="#33a8fd" d="m25.52305,10.01156c1.03555,0.21317 2.02297,0.56219 2.96216,1.04716c0.54245,0.26361 0.63502,0.61263 0.2777,1.04716c-0.39619,0.19487 -0.79738,0.39219 -1.20338,0.59187c0.4883,-0.07321 0.92031,-0.27044 1.29595,-0.59187c0.15431,-0.12138 0.30853,-0.24285 0.46284,-0.36423c0.33528,0.85521 0.58216,1.73547 0.74054,2.64067c0.14376,1.40156 0.09747,2.79775 -0.13885,4.18865c-0.12691,0.51156 -0.29668,0.99727 -0.50912,1.45692c-0.1209,-0.17966 -0.27521,-0.33136 -0.46284,-0.45529c-0.2453,-0.28747 -0.55383,-0.45438 -0.92568,-0.50082c0.31315,0.15352 0.59085,0.35084 0.83311,0.59187c0.11386,0.39783 -0.04036,0.68612 -0.46284,0.86505c-0.97409,0.47477 -1.99233,0.8238 -3.05473,1.04716c-0.0386,-3.8572 0.02314,-7.71204 0.18514,-11.56432z" id="svg_36"/>
   </g>
   <g stroke="null" id="svg_37">
    <path stroke="null" fill="#186daf" d="m28.76293,12.10589c0.03082,0 0.06174,0 0.09257,0c-0.37564,0.32143 -0.80765,0.51866 -1.29595,0.59187c0.406,-0.19969 0.80719,-0.39701 1.20338,-0.59187z" id="svg_38"/>
   </g>
   <g stroke="null" id="svg_39">
    <path stroke="null" fill="#072f4f" d="m18.67305,12.65223c1.05416,-0.03488 2.10323,0.01065 3.1473,0.13659c1.23411,0.57658 1.52718,1.47195 0.87939,2.6862c-0.25475,0.29685 -0.54791,0.5397 -0.87939,0.72846c0.46284,0.7892 0.92568,1.5783 1.38851,2.3675c-0.40109,0.12138 -0.80228,0.12138 -1.20338,0c-0.43998,-0.71371 -0.85653,-1.44217 -1.24966,-2.18538c-0.31417,-0.08705 -0.63816,-0.11737 -0.97196,-0.09106c0,0.7892 0,1.5783 0,2.3675c-0.37027,0 -0.74054,0 -1.11081,0c0,-2.00327 0,-4.00653 0,-6.0098z" id="svg_40"/>
   </g>
   <g stroke="null" id="svg_41">
    <path stroke="null" fill="#151516" d="m24.68995,9.82945c0.11951,-0.02158 0.21208,0.00874 0.2777,0.09106c0,3.91548 0,7.83095 0,11.74643c-0.09257,0 -0.18514,0 -0.2777,0c0,-3.9458 0,-7.89169 0,-11.83749z" id="svg_42"/>
   </g>
   <g stroke="null" id="svg_43">
    <path stroke="null" fill="#434440" d="m10.34198,9.82945c0,3.88515 0,7.77022 0,11.65538c-0.03082,0 -0.06174,0 -0.09257,0c0,-2.88352 0,-5.76695 0,-8.65048c-0.0897,-0.75104 -0.12052,-1.50992 -0.09257,-2.27644c0.0896,-0.19186 0.12052,-0.40439 0.09257,-0.6374c0,-0.06073 0.03082,-0.09106 0.09257,-0.09106z" id="svg_44"/>
   </g>
   <g stroke="null" id="svg_45">
    <path stroke="null" fill="#626261" d="m10.34198,9.82945c0.09257,0 0.18514,0 0.2777,0c0.06119,3.94698 -0.00046,7.86246 -0.18514,11.74643c-0.06174,0 -0.09257,-0.03032 -0.09257,-0.09106c0,-3.88515 0,-7.77022 0,-11.65538z" id="svg_46"/>
   </g>
   <g stroke="null" id="svg_47">
    <path stroke="null" fill="#5e5855" d="m24.96765,9.92051c0.03082,0 0.06174,0 0.09257,0c-0.03073,3.90064 0.00009,7.7857 0.09257,11.65538c-0.03166,0.07631 -0.09331,0.10672 -0.18514,0.09106c0,-3.91548 0,-7.83095 0,-11.74643z" id="svg_48"/>
   </g>
   <g stroke="null" id="svg_49">
    <path stroke="null" fill="#5b6268" d="m25.06022,9.92051c0.16588,-0.0122 0.3201,0.01812 0.46284,0.09106c-0.16199,3.85228 -0.22374,7.70712 -0.18514,11.56432c-0.06174,0 -0.12339,0 -0.18514,0c-0.09247,-3.86967 -0.1233,-7.75474 -0.09257,-11.65538z" id="svg_50"/>
   </g>
   <g stroke="null" id="svg_51">
    <path stroke="null" fill="#fafbfb" d="m21.07981,13.65387c0.57688,0.00601 0.85458,0.29439 0.83311,0.86505c0.00268,0.55864 -0.27502,0.87734 -0.83311,0.9561c-0.40109,0 -0.80228,0 -1.20338,0c0,-0.60708 0,-1.21407 0,-1.82115c0.40109,0 0.80228,0 1.20338,0l0,0.00001z" id="svg_52"/>
   </g>
   <g stroke="null" id="svg_53">
    <path stroke="null" fill="#141516" d="m10.89738,21.66694c-0.17726,0.02586 -0.33148,-0.00446 -0.46284,-0.09106c0.18468,-3.88397 0.24632,-7.79945 0.18514,-11.74643c0.06017,-0.02768 0.12191,-0.05801 0.18514,-0.09106c0.09257,3.97576 0.12339,7.95188 0.09257,11.92855l0,-0.00001z" id="svg_54"/>
   </g>
   <g stroke="null" id="svg_55">
    <path stroke="null" fill="#c6d2df" d="m21.07981,13.65387c-0.40109,0 -0.80228,0 -1.20338,0c0,0.60708 0,1.21407 0,1.82115c0.40109,0 0.80228,0 1.20338,0c-0.41378,0.08978 -0.84579,0.12011 -1.29595,0.09106c0,-0.66773 0,-1.33554 0,-2.00327c0.45016,-0.02905 0.88217,0.00127 1.29595,0.09106z" id="svg_56"/>
   </g>
   <g stroke="null" id="svg_57">
    <path stroke="null" fill="#082f4f" d="m14.41495,12.7433c0.46284,0 0.92568,0 1.38851,0c0.61751,2.00381 1.23458,4.00708 1.85135,6.0098c-0.37536,0.0295 -0.74563,-0.00082 -1.11081,-0.09106c-0.12913,-0.48734 -0.26798,-0.97304 -0.41655,-1.45692c-0.70972,-0.12138 -1.41934,-0.12138 -2.12905,0c-0.14857,0.48388 -0.28742,0.96958 -0.41655,1.45692c-0.36518,0.09024 -0.73545,0.12056 -1.11081,0.09106c0.61095,-2.01538 1.25892,-4.01865 1.94392,-6.0098z" id="svg_58"/>
   </g>
   <g stroke="null" id="svg_59">
    <path stroke="null" fill="#ecf1f3" d="m14.97035,13.56281c0.38851,0.85722 0.66621,1.76779 0.83311,2.73173c-0.49366,0 -0.98742,0 -1.48108,0c0.21615,-0.91103 0.4322,-1.82161 0.64797,-2.73173z" id="svg_60"/>
   </g>
   <g stroke="null" id="svg_61">
    <path stroke="null" fill="#85ccfe" d="m5.43589,17.66041c0.1115,0.50255 0.21949,1.01848 0.32399,1.54798c0.0671,0.29958 0.1751,0.57275 0.32399,0.81952c-0.0249,0.44354 0.12932,0.80777 0.46284,1.09269c0.203,0.49089 0.43442,0.9765 0.69426,1.45692c0.46774,0.55108 0.89966,1.12775 1.29595,1.73009c0.32399,0.19732 0.58623,0.45529 0.78682,0.77399c0.29807,0.22191 0.6066,0.41914 0.92568,0.59187c-0.01537,0.85039 0,1.70032 0.04628,2.54961c0.03259,0.15908 0.07887,0.31087 0.13885,0.45529c-3.28291,0.6496 -5.70508,-0.4735 -7.26655,-3.36913c-1.03797,-2.92951 -0.31285,-5.32732 2.17534,-7.19355c0.08811,-0.14068 0.11897,-0.29248 0.09257,-0.45529z" id="svg_62"/>
   </g>
   <g stroke="null" id="svg_63">
    <path stroke="null" fill="#1d74b3" d="m6.91697,19.29944c-0.03082,0 -0.06174,0 -0.09257,0c0.47487,-0.40001 1.03028,-0.62766 1.66622,-0.68293c-0.55115,0.18029 -1.07563,0.40794 -1.57365,0.68293z" id="svg_64"/>
   </g>
   <g stroke="null" id="svg_65">
    <path stroke="null" fill="#146098" d="m28.94806,19.57262c-0.06174,0 -0.09257,0.03032 -0.09257,0.09106c-0.24225,-0.24103 -0.51996,-0.43835 -0.83311,-0.59187c0.37185,0.04644 0.68037,0.21335 0.92568,0.50082z" id="svg_66"/>
   </g>
   <g stroke="null" id="svg_67">
    <path stroke="null" fill="#0e3050" d="m6.8244,19.29944c0.03082,0 0.06174,0 0.09257,0c-0.24521,0.18749 -0.32232,0.43025 -0.23142,0.72846c1.02667,0.84811 2.21459,1.33372 3.56385,1.45692c0.03082,0 0.06174,0 0.09257,0c0,0.06073 0.03082,0.09106 0.09257,0.09106c0.13136,0.0866 0.28557,0.11692 0.46284,0.09106c0.03082,0 0.06174,0 0.09257,0c1.25198,0.24158 2.5171,0.39337 3.79527,0.45529c0.2777,0 0.55541,0 0.83311,0c-0.02731,-0.20351 0.00361,-0.38563 0.09257,-0.54635c0.73425,0.33091 1.44396,0.71025 2.12905,1.13822c-0.71508,0.3819 -1.4248,0.76124 -2.12905,1.13822c0,-0.24285 0,-0.48561 0,-0.72846c-0.37027,0 -0.74054,0 -1.11081,0c-1.21115,-0.10253 -2.41453,-0.25423 -3.61013,-0.45529c0,1.82115 0,3.6423 0,5.46346c-0.09229,-1.80531 -0.12311,-3.62646 -0.09257,-5.46346c-0.09257,0 -0.18514,0 -0.2777,0c-0.09886,-0.08505 -0.22225,-0.11546 -0.37027,-0.09106c-1.32298,-0.25205 -2.55728,-0.73766 -3.7027,-1.45692c-0.33352,-0.28492 -0.48774,-0.64915 -0.46284,-1.09269c0.15922,-0.32262 0.406,-0.56547 0.74054,-0.72846z" id="svg_68"/>
   </g>
   <g stroke="null" id="svg_69">
    <path stroke="null" fill="#34a8fc" d="m6.5467,21.12059c1.14543,0.71926 2.37973,1.20487 3.7027,1.45692c0,1.03196 0,2.06401 0,3.09596c-0.31908,-0.17274 -0.62761,-0.36997 -0.92568,-0.59187c-0.20059,-0.3187 -0.46284,-0.57667 -0.78682,-0.77399c-0.39628,-0.60235 -0.8282,-1.17901 -1.29595,-1.73009c-0.25983,-0.48042 -0.49126,-0.96603 -0.69426,-1.45692l0,-0.00001z" id="svg_70"/>
   </g>
   <g stroke="null" id="svg_71">
    <path stroke="null" fill="#8d9fac" d="m15.71089,21.57588c0,0.21243 0,0.42497 0,0.6374c-0.32787,0.0285 -0.63641,-0.00191 -0.92568,-0.09106c0.28928,0.08914 0.59781,0.11956 0.92568,0.09106c0,-0.21243 0,-0.42497 0,-0.6374z" id="svg_72"/>
   </g>
   <g stroke="null" id="svg_73">
    <path stroke="null" fill="#092f50" d="m28.85549,19.66367c0,-0.06073 0.03082,-0.09106 0.09257,-0.09106c0.18763,0.12393 0.34194,0.27563 0.46284,0.45529c0.01518,0.24467 -0.00028,0.48752 -0.04628,0.72846c-0.1233,0.19669 -0.26215,0.3788 -0.41655,0.54635c-1.13433,0.60471 -2.33771,1.02968 -3.61013,1.27481c-0.12339,0 -0.24688,0 -0.37027,0c-0.12339,0.06073 -0.24688,0.12138 -0.37027,0.18212c-1.77989,0.25679 -3.5695,0.40857 -5.36892,0.45529c0,-0.33391 0,-0.66773 0,-1.00163c1.81812,-0.03916 3.60783,-0.22127 5.36892,-0.54635c0.03082,0 0.06174,0 0.09257,0c0.09257,0 0.18514,0 0.2777,0c0.09183,0.01566 0.15348,-0.01475 0.18514,-0.09106c0.06174,0 0.12339,0 0.18514,0c1.0624,-0.22336 2.08064,-0.57239 3.05473,-1.04716c0.42248,-0.17893 0.5767,-0.46722 0.46284,-0.86505z" id="svg_74"/>
   </g>
   <g stroke="null" id="svg_75">
    <path stroke="null" fill="#35a9fc" d="m28.94806,21.30271c-0.81025,1.77908 -2.01363,3.236 -3.61013,4.37076c0,-1.03196 0,-2.06401 0,-3.09596c1.27244,-0.24512 2.47582,-0.67009 3.61013,-1.27481l0,0.00001z" id="svg_76"/>
   </g>
   <g stroke="null" id="svg_77">
    <path stroke="null" fill="#585859" d="m10.24941,22.57752c0.14802,-0.0244 0.27141,0.00601 0.37027,0.09106c0,1.79083 0,3.58157 0,5.3724c-0.07701,-1.77526 -0.1233,-3.566 -0.13885,-5.3724c-0.06174,1.91221 -0.06174,3.82442 0,5.73663c0.16968,0.40976 0.46284,0.69814 0.87939,0.86505c4.22728,0.06073 8.45448,0.06073 12.68176,0c0.34139,-0.01776 0.55744,-0.18476 0.64797,-0.50082c-0.01592,-0.09033 0.015,-0.15097 0.09257,-0.18212c-0.01213,0.06729 0.00333,0.12803 0.04628,0.18212c0.09257,-0.15179 0.18514,-0.3035 0.2777,-0.45529c0.06174,-1.88189 0.06174,-3.76368 0,-5.64557c-0.01555,1.8064 -0.06184,3.59714 -0.13885,5.3724c0,-1.82115 0,-3.6423 0,-5.46346c0.12339,0 0.24688,0 0.37027,0c0,1.03196 0,2.06401 0,3.09596c0.01537,0.85039 0,1.70032 -0.04628,2.54961c-0.1607,0.61345 -0.54643,1.02322 -1.15709,1.22928c-4.22728,0.06073 -8.45448,0.06073 -12.68176,0c-0.43599,-0.14114 -0.77534,-0.39911 -1.01824,-0.77399c-0.05998,-0.14441 -0.10626,-0.29621 -0.13885,-0.45529c-0.04628,-0.84929 -0.06165,-1.69922 -0.04628,-2.54961c0,-1.03196 0,-2.06401 0,-3.09596z" id="svg_78"/>
   </g>
   <g stroke="null" id="svg_79">
    <path stroke="null" fill="#7e7e7e" d="m10.61968,28.04098c0.09025,0.58997 0.4297,0.96931 1.01824,1.13822c4.07297,0.06073 8.14594,0.06073 12.21893,0c0.30908,-0.07667 0.58678,-0.21325 0.83311,-0.40976c-0.09053,0.31606 -0.30659,0.48306 -0.64797,0.50082c-4.22728,0.06073 -8.45448,0.06073 -12.68176,0c-0.41655,-0.16691 -0.70972,-0.45529 -0.87939,-0.86505c-0.06174,-1.91221 -0.06174,-3.82442 0,-5.73663c0.01555,1.8064 0.06184,3.59714 0.13885,5.3724l0,0.00001z" id="svg_80"/>
   </g>
   <g stroke="null" id="svg_81">
    <path stroke="null" fill="#262727" d="m24.96765,22.57752c0,1.82115 0,3.6423 0,5.46346c-0.00962,0.2006 -0.07127,0.38272 -0.18514,0.54635c-0.07757,0.03114 -0.10849,0.09179 -0.09257,0.18212c-0.24632,0.1965 -0.52403,0.33309 -0.83311,0.40976c-4.07297,0.06073 -8.14594,0.06073 -12.21893,0c-0.58855,-0.16891 -0.92799,-0.54826 -1.01824,-1.13822c0,-1.79083 0,-3.58157 0,-5.3724c0.09257,0 0.18514,0 0.2777,0c-0.03054,1.837 0.00028,3.65815 0.09257,5.46346c0.09655,0.23274 0.25086,0.43006 0.46284,0.59187c4.19636,0.06073 8.39282,0.06073 12.5892,0c0.23142,-0.10626 0.40109,-0.27317 0.50912,-0.50082c0.04628,-1.82088 0.06174,-3.64203 0.04628,-5.46346c0.12339,-0.06073 0.24688,-0.12138 0.37027,-0.18212l0,-0.00001z" id="svg_82"/>
   </g>
   <g stroke="null" id="svg_83">
    <path stroke="null" fill="#7c7e80" d="m24.78251,28.58732c0.11386,-0.16363 0.17551,-0.34575 0.18514,-0.54635c0.07701,-1.77526 0.1233,-3.566 0.13885,-5.3724c0.06174,1.88189 0.06174,3.76368 0,5.64557c-0.09257,0.15179 -0.18514,0.3035 -0.2777,0.45529c-0.04295,-0.05409 -0.05841,-0.11482 -0.04628,-0.18212l0,0.00001z" id="svg_84"/>
   </g>
  </g>
  <path fill="#fff" stroke="#000" d="m121.39499,161.37491l0.38197,0l0.11803,-0.54067l0.11803,0.54067l0.38197,0l-0.30902,0.33415l0.11804,0.54067l-0.30902,-0.33416l-0.30902,0.33416l0.11804,-0.54067l-0.30902,-0.33415z" id="svg_88"/>
  <path fill="#fff" stroke="#000" d="m489.545,30.29171l0.56913,0l0.17587,-0.38197l0.17587,0.38197l0.56913,0l-0.46044,0.23607l0.17588,0.38197l-0.46044,-0.23607l-0.46044,0.23607l0.17588,-0.38197l-0.46044,-0.23607z" id="svg_89"/>
  <text font-style="normal" opacity="0.8" stroke-width="2" stroke-dasharray="—" font-weight="normal" transform="matrix(0.846798 0 0 0.915464 5.85152 0.180769)" stroke="#000" xml:space="preserve" text-anchor="start" font-family="'Dancing Script'" font-size="24" id="svg_85" y="25.53464" x="42.93002" fill="#000000">WEB AR</text>
 </g>

</svg>