<svg width="30" height="40" xmlns="http://www.w3.org/2000/svg" clip-rule="evenodd" version="1.1">

 <g>
  <title>Layer 1</title>
  <g stroke="null" id="svg_87">
   <g stroke="null" id="svg_1">
    <path stroke="null" id="svg_2" d="m-5,0c12.96867,0 25.93735,0 38.90602,0c0,13.15258 0,26.30517 0,39.45775c-12.96867,0 -25.93735,0 -38.90602,0c0,-13.15258 0,-26.30517 0,-39.45775z" fill="#fefefe"/>
   </g>
   <g stroke="null" id="svg_3">
    <path stroke="null" id="svg_4" d="m21.28318,6.83934c-0.03787,-0.00573 -0.06675,0.00887 -0.08646,0.04384c0.25652,0.18418 0.415,0.43261 0.47552,0.74531c0.05767,1.81216 0.05767,3.62424 0,5.4364c-0.01452,-1.79787 -0.05775,-3.58075 -0.12969,-5.34872c-0.15415,-0.43408 -0.4424,-0.74097 -0.86458,-0.92068c-3.8906,-0.05846 -7.7812,-0.05846 -11.67181,0c-0.35551,0.15595 -0.62924,0.40439 -0.82135,0.74531c-0.04323,1.8411 -0.05767,3.68246 -0.04323,5.52409c-0.08646,0 -0.17292,0 -0.25937,0c0.02853,-1.73965 -0.00026,-3.46413 -0.08646,-5.17335c0.09251,-0.60666 0.40946,-1.05969 0.95104,-1.3591c4.03473,-0.05846 8.06937,-0.05846 12.1041,0c0.1596,0.0903 0.30373,0.19259 0.43229,0.30689z" fill="#666667"/>
   </g>
   <g stroke="null" id="svg_5">
    <path stroke="null" id="svg_6" d="m21.54255,7.71618c0,1.78288 0,3.56584 0,5.34872c-0.08646,0 -0.17292,0 -0.25937,0c0.02853,-1.73965 -0.00026,-3.46413 -0.08646,-5.17335c-0.09303,-0.37219 -0.32353,-0.62064 -0.69166,-0.74531c-3.80414,-0.05846 -7.60829,-0.05846 -11.41243,0c-0.23439,0.11053 -0.42174,0.27129 -0.56198,0.48226c-0.04323,1.7827 -0.05767,3.56558 -0.04323,5.34872c-0.12614,-0.00587 -0.24139,0.02332 -0.34583,0.08768c-0.01444,-1.84162 0,-3.68299 0.04323,-5.52409c0.19211,-0.34092 0.46583,-0.58936 0.82135,-0.74531c3.8906,-0.05846 7.7812,-0.05846 11.67181,0c0.42217,0.17971 0.71042,0.4866 0.86458,0.92068z" fill="#202020"/>
   </g>
   <g stroke="null" id="svg_7">
    <path stroke="null" id="svg_8" d="m21.19672,7.89155c0,1.69519 0,3.39047 0,5.08567c-0.11525,0 -0.23058,0 -0.34583,0c-1.34892,-0.19168 -2.70336,-0.33785 -4.06352,-0.43842c0.02663,-0.21255 -0.00225,-0.41711 -0.08646,-0.61379c-0.634,0.35074 -1.26808,0.70147 -1.90207,1.05221c0.61005,0.43404 1.25848,0.81397 1.9453,1.13989c0.04297,-0.20255 0.05732,-0.40712 0.04323,-0.61379c1.44679,0.08839 2.88778,0.23455 4.32289,0.43842c0.08594,3.82249 0.11482,7.65138 0.08646,11.48659c-1.64486,0.31303 -3.31644,0.4884 -5.01455,0.5261c0,0.32154 0,0.64299 0,0.96452c1.68065,-0.04498 3.35214,-0.19115 5.01455,-0.43842c0.01444,1.75394 0,3.50762 -0.04323,5.26103c-0.1009,0.21921 -0.25937,0.37993 -0.47552,0.48226c-3.91939,0.05849 -7.83887,0.05849 -11.75826,0c-0.19799,-0.15581 -0.34211,-0.34583 -0.43229,-0.56995c0,-1.75368 0,-3.50736 0,-5.26103c1.11669,0.19361 2.24064,0.33969 3.37186,0.43842c0.29932,0.08611 0.61636,0.1153 0.95104,0.08768c-0.02611,0.22438 0.00277,0.42904 0.08646,0.61379c0.65777,-0.36301 1.32064,-0.7283 1.98853,-1.09605c-0.63987,-0.41211 -1.30275,-0.77741 -1.98853,-1.09605c-0.08309,0.15476 -0.11196,0.33013 -0.08646,0.5261c-0.25937,0 -0.51875,0 -0.77812,0c-1.19381,-0.05963 -2.37543,-0.20579 -3.54477,-0.43842c-0.01444,-3.82898 0,-7.65787 0.04323,-11.48659c1.6376,-0.31391 3.29473,-0.46008 4.97133,-0.43842c0,-0.32154 0,-0.64299 0,-0.96452c-1.01441,-0.0192 -2.02303,0.03919 -3.02602,0.17537c-0.42485,-0.0121 -0.82835,0.0463 -1.21041,0.17537c-0.26093,0.01789 -0.5203,0.04709 -0.77812,0.08768c-0.01444,-1.78314 0,-3.56602 0.04323,-5.34872c0.14023,-0.21097 0.32759,-0.37173 0.56198,-0.48226c3.80414,-0.05846 7.60829,-0.05846 11.41243,0c0.36814,0.12468 0.59863,0.37312 0.69166,0.74531z" fill="#fdfdfd"/>
   </g>
   <g stroke="null" id="svg_9">
    <path stroke="null" id="svg_10" d="m21.54255,7.01471c2.55224,0.07352 4.52633,1.18419 5.92236,3.33199c1.26782,2.6449 1.06603,5.15844 -0.6052,7.54082c-0.14793,0.22324 -0.3352,0.39861 -0.56198,0.5261c-0.14793,-0.87167 -0.37851,-1.71931 -0.69166,-2.54283c0.26975,-0.46736 0.21208,-0.89122 -0.17292,-1.27142c-0.26517,-0.19185 -0.52454,-0.38186 -0.77812,-0.56995c-0.70576,-1.24213 -1.62791,-2.29434 -2.76665,-3.15662c0.01444,-1.11104 0,-2.22171 -0.04323,-3.33199c-0.12052,-0.1655 -0.22133,-0.34087 -0.3026,-0.5261z" fill="#85ccfe"/>
   </g>
   <g stroke="null" id="svg_11">
    <path stroke="null" id="svg_12" d="m7.79576,7.89155c0.0862,1.70922 0.11499,3.4337 0.08646,5.17335c-0.05767,0 -0.11525,0 -0.17292,0c-0.02369,-0.41764 0.0051,-0.82686 0.08646,-1.22757c0,-0.32154 0,-0.64299 0,-0.96452c0,-0.99372 0,-1.98753 0,-2.98125z" fill="#444341"/>
   </g>
   <g stroke="null" id="svg_13">
    <path stroke="null" id="svg_14" d="m21.19672,7.89155c0.0862,1.70922 0.11499,3.4337 0.08646,5.17335c-0.16557,0.0249 -0.30961,-0.0043 -0.43229,-0.08768c0.11525,0 0.23058,0 0.34583,0c0,-1.69519 0,-3.39047 0,-5.08567z" fill="#5c5d5e"/>
   </g>
   <g stroke="null" id="svg_15">
    <path stroke="null" id="svg_16" d="m21.28318,6.83934c0.08646,0.05846 0.17292,0.11691 0.25937,0.17537c0.08127,0.18523 0.18208,0.3606 0.3026,0.5261c0.04323,1.11028 0.05767,2.22095 0.04323,3.33199c-0.02568,0.65061 0.00311,1.29369 0.08646,1.92905c0.04444,0.4706 -0.0996,0.55828 -0.43229,0.26305c0,-1.78288 0,-3.56584 0,-5.34872c0.07193,1.76797 0.11516,3.55085 0.12969,5.34872c0.05767,-1.81216 0.05767,-3.62424 0,-5.4364c-0.06052,-0.3127 -0.219,-0.56113 -0.47552,-0.74531c0.01971,-0.03497 0.04859,-0.04958 0.08646,-0.04384z" fill="#565658"/>
   </g>
   <g stroke="null" id="svg_17">
    <path stroke="null" id="svg_18" d="m7.79576,10.8728c0,0.32154 0,0.64299 0,0.96452c-0.1679,0.39949 -0.22548,0.83791 -0.17292,1.31526c-0.92743,0.18685 -1.8208,0.47919 -2.68019,0.87684c0.71328,-1.26984 1.66431,-2.32205 2.85311,-3.15662z" fill="#36a9fb"/>
   </g>
   <g stroke="null" id="svg_19">
    <path stroke="null" id="svg_20" d="m21.88838,10.8728c1.13874,0.86228 2.0609,1.91449 2.76665,3.15662c-0.7763,-0.31917 -1.5833,-0.56758 -2.42082,-0.74531c-0.12562,-0.14459 -0.21208,-0.30532 -0.25937,-0.48226c-0.08335,-0.63536 -0.11214,-1.27843 -0.08646,-1.92905z" fill="#34a8fa"/>
   </g>
   <g stroke="null" id="svg_21">
    <path stroke="null" id="svg_22" d="m7.79576,11.83733c-0.08136,0.40072 -0.11015,0.80994 -0.08646,1.22757c0,0.05849 -0.02879,0.08768 -0.08646,0.08768c-0.05257,-0.47735 0.00501,-0.91577 0.17292,-1.31526z" fill="#567da6"/>
   </g>
   <g stroke="null" id="svg_23">
    <path stroke="null" id="svg_24" d="m20.76443,12.88953c0.12268,0.08339 0.26672,0.11259 0.43229,0.08768c0.08646,0 0.17292,0 0.25937,0c0.33269,0.29523 0.47673,0.20755 0.43229,-0.26305c0.04729,0.17695 0.13375,0.33767 0.25937,0.48226c0.83752,0.17774 1.64451,0.42614 2.42082,0.74531c0.25358,0.18808 0.51295,0.37809 0.77812,0.56995c0.385,0.3802 0.44266,0.80406 0.17292,1.27142c-0.14413,0.11688 -0.28816,0.23385 -0.43229,0.35074c-0.02879,0 -0.05767,0 -0.08646,0c0.33373,-0.41843 0.24727,-0.75452 -0.25937,-1.00836c-0.8772,-0.467 -1.79945,-0.8031 -2.76665,-1.00836c-0.13332,-0.07023 -0.27736,-0.09943 -0.43229,-0.08768c-0.02879,0 -0.05767,0 -0.08646,0c-0.0613,-0.07927 -0.14776,-0.10846 -0.25937,-0.08768c-0.02957,-0.07348 -0.08715,-0.10277 -0.17292,-0.08768c-1.43511,-0.20387 -2.87611,-0.35003 -4.32289,-0.43842c0.01409,0.20667 -0.00026,0.41124 -0.04323,0.61379c-0.68682,-0.32592 -1.33525,-0.70586 -1.9453,-1.13989c0.634,-0.35074 1.26808,-0.70147 1.90207,-1.05221c0.08421,0.19667 0.11309,0.40124 0.08646,0.61379c1.36015,0.10057 2.7146,0.24674 4.06352,0.43842z" fill="#062e50"/>
   </g>
   <g stroke="null" id="svg_25">
    <path stroke="null" id="svg_26" d="m10.47595,12.71417c-0.38206,0.12907 -0.78556,0.18747 -1.21041,0.17537c0.38206,-0.12907 0.78556,-0.18747 1.21041,-0.17537z" fill="#3e556e"/>
   </g>
   <g stroke="null" id="svg_27">
    <path stroke="null" id="svg_28" d="m8.48742,25.42833c-0.02879,0 -0.05767,0 -0.08646,0c0.02879,-3.82933 0,-7.65814 -0.08646,-11.48659c-0.05905,0.03183 -0.11672,0.06103 -0.17292,0.08768c-0.08646,0 -0.17292,0 -0.25937,0c-0.05767,0 -0.08646,0.0292 -0.08646,0.08768c-1.04545,0.14792 -2.02527,0.48402 -2.93957,1.00836c-0.57641,0.37993 -0.57641,0.75996 0,1.13989c-0.02879,0.01464 -0.05767,0.0292 -0.08646,0.04384c-0.2879,-0.14634 -0.51849,-0.35091 -0.69166,-0.61379c-0.12874,-0.3282 -0.1143,-0.64974 0.04323,-0.96452c0.23966,-0.28787 0.51347,-0.52172 0.82135,-0.70147c0.85939,-0.39765 1.75276,-0.68998 2.68019,-0.87684c0.05767,0 0.08646,-0.0292 0.08646,-0.08768c0.05767,0 0.11525,0 0.17292,0c0.08646,0 0.17292,0 0.25937,0c0.10444,-0.06436 0.21969,-0.09356 0.34583,-0.08768c0.25782,-0.0406 0.51719,-0.0698 0.77812,-0.08768c0.42485,0.0121 0.82835,-0.0463 1.21041,-0.17537c1.003,-0.13617 2.01161,-0.19457 3.02602,-0.17537c0,0.32154 0,0.64299 0,0.96452c-1.67659,-0.02166 -3.33373,0.12451 -4.97133,0.43842c-0.04323,3.82872 -0.05767,7.65761 -0.04323,11.48659z" fill="#173554"/>
   </g>
   <g stroke="null" id="svg_29">
    <path stroke="null" id="svg_30" d="m21.11026,13.94174c0.08577,-0.01508 0.14335,0.0142 0.17292,0.08768c0,3.79961 0,7.5993 0,11.39891c-0.02879,0 -0.05767,0 -0.08646,0c0.02836,-3.83521 -0.00052,-7.6641 -0.08646,-11.48659z" fill="#5a5b5b"/>
   </g>
   <g stroke="null" id="svg_31">
    <path stroke="null" id="svg_32" d="m7.7093,14.7309c-0.02611,0.73812 0.00268,1.46888 0.08646,2.1921c-0.11456,-0.33109 -0.17214,-0.69647 -0.17292,-1.09605c0.00009,-0.38116 0.02888,-0.74654 0.08646,-1.09605z" fill="#597fa9"/>
   </g>
   <g stroke="null" id="svg_33">
    <path stroke="null" id="svg_34" d="m7.79576,14.11711c0.02611,0.22438 -0.00277,0.42904 -0.08646,0.61379c-0.05758,0.34951 -0.08637,0.71489 -0.08646,1.09605c0.00078,0.39958 0.05836,0.76495 0.17292,1.09605c0,2.77669 0,5.55328 0,8.32997c-1.26021,-0.11864 -2.36972,-0.58625 -3.32863,-1.40294c-0.0849,-0.28716 -0.01288,-0.52093 0.21614,-0.70147c0.46514,-0.26481 0.95501,-0.48402 1.46978,-0.65763c-0.59397,0.05322 -1.11271,0.27243 -1.55624,0.65763c-0.31246,0.15695 -0.54296,0.39081 -0.69166,0.70147c-0.13906,-0.23762 -0.23993,-0.50068 -0.3026,-0.78916c-0.09759,-0.50988 -0.19846,-1.0067 -0.3026,-1.49063c-0.22262,-2.02681 0.03675,-3.98515 0.77812,-5.87482c0.17318,0.26288 0.40376,0.46744 0.69166,0.61379c0.02879,-0.01464 0.05767,-0.0292 0.08646,-0.04384c-0.57641,-0.37993 -0.57641,-0.75996 0,-1.13989c0.91429,-0.52435 1.89412,-0.86044 2.93957,-1.00836z" fill="#33a8fd"/>
   </g>
   <g stroke="null" id="svg_35">
    <path stroke="null" id="svg_36" d="m22.0613,14.20479c0.9672,0.20527 1.88945,0.54136 2.76665,1.00836c0.50664,0.25384 0.5931,0.58994 0.25937,1.00836c-0.37004,0.18764 -0.74475,0.37765 -1.12395,0.56995c0.45607,-0.0705 0.85956,-0.26042 1.21041,-0.56995c0.14413,-0.11688 0.28816,-0.23385 0.43229,-0.35074c0.31315,0.82353 0.54373,1.67117 0.69166,2.54283c0.13427,1.34963 0.09104,2.69409 -0.12969,4.03346c-0.11853,0.49261 -0.2771,0.96031 -0.47552,1.40294c-0.11291,-0.173 -0.25704,-0.31908 -0.43229,-0.43842c-0.22911,-0.27682 -0.51728,-0.43754 -0.86458,-0.48226c0.29249,0.14784 0.55186,0.33785 0.77812,0.56995c0.10634,0.38309 -0.0377,0.6607 -0.43229,0.833c-0.9098,0.45718 -1.86083,0.79328 -2.85311,1.00836c-0.03605,-3.71429 0.02161,-7.4263 0.17292,-11.13586z" fill="#33a8fd"/>
   </g>
   <g stroke="null" id="svg_37">
    <path stroke="null" id="svg_38" d="m25.08732,16.22152c0.02879,0 0.05767,0 0.08646,0c-0.35085,0.30952 -0.75434,0.49945 -1.21041,0.56995c0.3792,-0.19229 0.75391,-0.3823 1.12395,-0.56995z" fill="#186daf"/>
   </g>
   <g stroke="null" id="svg_39">
    <path stroke="null" id="svg_40" d="m15.66342,16.74762c0.98458,-0.03358 1.96441,0.01026 2.93957,0.13153c1.15266,0.55521 1.42638,1.41741 0.82135,2.58668c-0.23793,0.28585 -0.51174,0.5197 -0.82135,0.70147c0.43229,0.75996 0.86458,1.51983 1.29687,2.27978c-0.37462,0.11688 -0.74933,0.11688 -1.12395,0c-0.41093,-0.68727 -0.79999,-1.38874 -1.16718,-2.10441c-0.29344,-0.08383 -0.59604,-0.11302 -0.90781,-0.08768c0,0.75996 0,1.51983 0,2.27978c-0.34583,0 -0.69166,0 -1.03749,0c0,-1.92905 0,-3.85809 0,-5.78714z" fill="#072f4f"/>
   </g>
   <g stroke="null" id="svg_41">
    <path stroke="null" id="svg_42" d="m21.28318,14.02942c0.11162,-0.02078 0.19807,0.00842 0.25937,0.08768c0,3.77041 0,7.54082 0,11.31122c-0.08646,0 -0.17292,0 -0.25937,0c0,-3.79961 0,-7.5993 0,-11.39891z" fill="#151516"/>
   </g>
   <g stroke="null" id="svg_43">
    <path stroke="null" id="svg_44" d="m7.88222,14.02942c0,3.74121 0,7.48233 0,11.22354c-0.02879,0 -0.05767,0 -0.08646,0c0,-2.77669 0,-5.55328 0,-8.32997c-0.08378,-0.72322 -0.11257,-1.45397 -0.08646,-2.1921c0.08369,-0.18475 0.11257,-0.3894 0.08646,-0.61379c0,-0.05849 0.02879,-0.08768 0.08646,-0.08768z" fill="#434440"/>
   </g>
   <g stroke="null" id="svg_45">
    <path stroke="null" id="svg_46" d="m7.88222,14.02942c0.08646,0 0.17292,0 0.25937,0c0.05715,3.80075 -0.00043,7.57115 -0.17292,11.31122c-0.05767,0 -0.08646,-0.0292 -0.08646,-0.08768c0,-3.74121 0,-7.48233 0,-11.22354z" fill="#626261"/>
   </g>
   <g stroke="null" id="svg_47">
    <path stroke="null" id="svg_48" d="m21.54255,14.11711c0.02879,0 0.05767,0 0.08646,0c-0.0287,3.75612 0.00009,7.49724 0.08646,11.22354c-0.02957,0.07348 -0.08715,0.10277 -0.17292,0.08768c0,-3.77041 0,-7.54082 0,-11.31122z" fill="#5e5855"/>
   </g>
   <g stroke="null" id="svg_49">
    <path stroke="null" id="svg_50" d="m21.62901,14.11711c0.15493,-0.01175 0.29897,0.01745 0.43229,0.08768c-0.1513,3.70956 -0.20897,7.42157 -0.17292,11.13586c-0.05767,0 -0.11525,0 -0.17292,0c-0.08637,-3.7263 -0.11516,-7.46742 -0.08646,-11.22354z" fill="#5b6268"/>
   </g>
   <g stroke="null" id="svg_51">
    <path stroke="null" id="svg_52" d="m17.91132,17.71215c0.53881,0.00579 0.79818,0.28348 0.77812,0.833c0.00251,0.53794 -0.25687,0.84483 -0.77812,0.92068c-0.37462,0 -0.74933,0 -1.12395,0c0,-0.58459 0,-1.16909 0,-1.75368c0.37462,0 0.74933,0 1.12395,0z" fill="#fafbfb"/>
   </g>
   <g stroke="null" id="svg_53">
    <path stroke="null" id="svg_54" d="m8.40096,25.42833c-0.16557,0.0249 -0.30961,-0.0043 -0.43229,-0.08768c0.17248,-3.74007 0.23006,-7.51048 0.17292,-11.31122c0.0562,-0.02666 0.11386,-0.05585 0.17292,-0.08768c0.08646,3.82845 0.11525,7.65726 0.08646,11.48659z" fill="#141516"/>
   </g>
   <g stroke="null" id="svg_55">
    <path stroke="null" id="svg_56" d="m17.91132,17.71215c-0.37462,0 -0.74933,0 -1.12395,0c0,0.58459 0,1.16909 0,1.75368c0.37462,0 0.74933,0 1.12395,0c-0.38647,0.08646 -0.78997,0.11566 -1.21041,0.08768c0,-0.64299 0,-1.28606 0,-1.92905c0.42044,-0.02797 0.82394,0.00123 1.21041,0.08768z" fill="#c6d2df"/>
   </g>
   <g stroke="null" id="svg_57">
    <path stroke="null" id="svg_58" d="m11.68636,16.83531c0.43229,0 0.86458,0 1.29687,0c0.57676,1.92957 1.15309,3.85862 1.72916,5.78714c-0.35059,0.02841 -0.69642,-0.00079 -1.03749,-0.08768c-0.12061,-0.46928 -0.2503,-0.93699 -0.38906,-1.40294c-0.66287,-0.11688 -1.32566,-0.11688 -1.98853,0c-0.13876,0.46595 -0.26845,0.93366 -0.38906,1.40294c-0.34108,0.08689 -0.68691,0.11609 -1.03749,0.08768c0.57062,-1.94071 1.17583,-3.86975 1.81561,-5.78714z" fill="#082f4f"/>
   </g>
   <g stroke="null" id="svg_59">
    <path stroke="null" id="svg_60" d="m12.20511,17.62446c0.36286,0.82546 0.62224,1.7023 0.77812,2.63052c-0.46108,0 -0.92225,0 -1.38333,0c0.20188,-0.87728 0.40367,-1.75412 0.6052,-2.63052z" fill="#ecf1f3"/>
   </g>
   <g stroke="null" id="svg_61">
    <path stroke="null" id="svg_62" d="m3.29995,21.57024c0.10414,0.48393 0.20501,0.98074 0.3026,1.49063c0.06267,0.28848 0.16354,0.55153 0.3026,0.78916c-0.02326,0.42711 0.12078,0.77784 0.43229,1.05221c0.1896,0.4727 0.40575,0.94032 0.64843,1.40294c0.43687,0.53066 0.84028,1.08597 1.21041,1.66599c0.3026,0.19001 0.54754,0.43842 0.73489,0.74531c0.27839,0.21369 0.56656,0.40361 0.86458,0.56995c-0.01435,0.81888 0,1.63732 0.04323,2.45515c0.03043,0.15318 0.07366,0.29935 0.12969,0.43842c-3.06623,0.62554 -5.32853,-0.45596 -6.78694,-3.2443c-0.96946,-2.82097 -0.2922,-5.12995 2.03176,-6.92703c0.0823,-0.13547 0.11112,-0.28164 0.08646,-0.43842z" fill="#85ccfe"/>
   </g>
   <g stroke="null" id="svg_63">
    <path stroke="null" id="svg_64" d="m4.68328,23.14855c-0.02879,0 -0.05767,0 -0.08646,0c0.44353,-0.3852 0.96228,-0.60441 1.55624,-0.65763c-0.51477,0.17361 -1.00464,0.39282 -1.46978,0.65763z" fill="#1d74b3"/>
   </g>
   <g stroke="null" id="svg_65">
    <path stroke="null" id="svg_66" d="m25.26024,23.4116c-0.05767,0 -0.08646,0.0292 -0.08646,0.08768c-0.22626,-0.2321 -0.48563,-0.42211 -0.77812,-0.56995c0.3473,0.04472 0.63547,0.20544 0.86458,0.48226z" fill="#146098"/>
   </g>
   <g stroke="null" id="svg_67">
    <path stroke="null" id="svg_68" d="m4.59682,23.14855c0.02879,0 0.05767,0 0.08646,0c-0.22903,0.18054 -0.30105,0.41431 -0.21614,0.70147c0.9589,0.81669 2.06842,1.28431 3.32863,1.40294c0.02879,0 0.05767,0 0.08646,0c0,0.05849 0.02879,0.08768 0.08646,0.08768c0.12268,0.08339 0.26672,0.11259 0.43229,0.08768c0.02879,0 0.05767,0 0.08646,0c1.16934,0.23263 2.35096,0.37879 3.54477,0.43842c0.25937,0 0.51875,0 0.77812,0c-0.02551,-0.19597 0.00337,-0.37134 0.08646,-0.5261c0.68578,0.31864 1.34866,0.68393 1.98853,1.09605c-0.66789,0.36775 -1.33076,0.73304 -1.98853,1.09605c0,-0.23385 0,-0.46762 0,-0.70147c-0.34583,0 -0.69166,0 -1.03749,0c-1.13121,-0.09873 -2.25517,-0.24481 -3.37186,-0.43842c0,1.75368 0,3.50736 0,5.26103c-0.0862,-1.73842 -0.11499,-3.4921 -0.08646,-5.26103c-0.08646,0 -0.17292,0 -0.25937,0c-0.09234,-0.0819 -0.20759,-0.11118 -0.34583,-0.08768c-1.23566,-0.24271 -2.38848,-0.71033 -3.45831,-1.40294c-0.31151,-0.27436 -0.45555,-0.6251 -0.43229,-1.05221c0.14871,-0.31066 0.3792,-0.54452 0.69166,-0.70147z" fill="#0e3050"/>
   </g>
   <g stroke="null" id="svg_69">
    <path stroke="null" id="svg_70" d="m4.33745,24.90223c1.06983,0.69262 2.22266,1.16023 3.45831,1.40294c0,0.99372 0,1.98753 0,2.98125c-0.29802,-0.16634 -0.58618,-0.35626 -0.86458,-0.56995c-0.18735,-0.30689 -0.43229,-0.5553 -0.73489,-0.74531c-0.37013,-0.58003 -0.77354,-1.13533 -1.21041,-1.66599c-0.24269,-0.46262 -0.45883,-0.93024 -0.64843,-1.40294z" fill="#34a8fc"/>
   </g>
   <g stroke="null" id="svg_71">
    <path stroke="null" id="svg_72" d="m12.89677,25.34065c0,0.20457 0,0.40922 0,0.61379c-0.30623,0.02745 -0.5944,-0.00184 -0.86458,-0.08768c0.27018,0.08584 0.55834,0.11513 0.86458,0.08768c0,-0.20457 0,-0.40922 0,-0.61379z" fill="#8d9fac"/>
   </g>
   <g stroke="null" id="svg_73">
    <path stroke="null" id="svg_74" d="m25.17378,23.49928c0,-0.05849 0.02879,-0.08768 0.08646,-0.08768c0.17525,0.11934 0.31938,0.26542 0.43229,0.43842c0.01418,0.23561 -0.00026,0.46946 -0.04323,0.70147c-0.11516,0.1894 -0.24485,0.36477 -0.38906,0.5261c-1.05945,0.58231 -2.18341,0.99153 -3.37186,1.22757c-0.11525,0 -0.23058,0 -0.34583,0c-0.11525,0.05849 -0.23058,0.11688 -0.34583,0.17537c-1.66241,0.24727 -3.3339,0.39344 -5.01455,0.43842c0,-0.32154 0,-0.64299 0,-0.96452c1.69812,-0.0377 3.36969,-0.21307 5.01455,-0.5261c0.02879,0 0.05767,0 0.08646,0c0.08646,0 0.17292,0 0.25937,0c0.08577,0.01508 0.14335,-0.0142 0.17292,-0.08768c0.05767,0 0.11525,0 0.17292,0c0.99228,-0.21509 1.94331,-0.55118 2.85311,-1.00836c0.39459,-0.1723 0.53863,-0.44991 0.43229,-0.833z" fill="#092f50"/>
   </g>
   <g stroke="null" id="svg_75">
    <path stroke="null" id="svg_76" d="m25.26024,25.0776c-0.75677,1.71317 -1.88072,3.11611 -3.37186,4.20883c0,-0.99372 0,-1.98753 0,-2.98125c1.18845,-0.23605 2.3124,-0.64527 3.37186,-1.22757z" fill="#35a9fc"/>
   </g>
   <g stroke="null" id="svg_77">
    <path stroke="null" id="svg_78" d="m7.79576,26.30517c0.13825,-0.0235 0.25349,0.00579 0.34583,0.08768c0,1.72448 0,3.44887 0,5.17335c-0.07193,-1.70949 -0.11516,-3.43388 -0.12969,-5.17335c-0.05767,1.84136 -0.05767,3.68272 0,5.52409c0.15848,0.39458 0.43229,0.67227 0.82135,0.833c3.94827,0.05849 7.89645,0.05849 11.84472,0c0.31886,-0.0171 0.52065,-0.17791 0.6052,-0.48226c-0.01487,-0.08698 0.01401,-0.14538 0.08646,-0.17537c-0.01133,0.0648 0.00311,0.12328 0.04323,0.17537c0.08646,-0.14617 0.17292,-0.29225 0.25937,-0.43842c0.05767,-1.81216 0.05767,-3.62424 0,-5.4364c-0.01452,1.73947 -0.05775,3.46386 -0.12969,5.17335c0,-1.75368 0,-3.50736 0,-5.26103c0.11525,0 0.23058,0 0.34583,0c0,0.99372 0,1.98753 0,2.98125c0.01435,0.81888 0,1.63732 -0.04323,2.45515c-0.15009,0.59073 -0.51036,0.9853 -1.08072,1.18373c-3.94827,0.05849 -7.89645,0.05849 -11.84472,0c-0.40722,-0.13591 -0.72417,-0.38432 -0.95104,-0.74531c-0.05602,-0.13907 -0.09925,-0.28524 -0.12969,-0.43842c-0.04323,-0.81783 -0.05758,-1.63627 -0.04323,-2.45515c0,-0.99372 0,-1.98753 0,-2.98125z" fill="#585859"/>
   </g>
   <g stroke="null" id="svg_79">
    <path stroke="null" id="svg_80" d="m8.14159,31.5662c0.0843,0.5681 0.40134,0.9334 0.95104,1.09605c3.80414,0.05849 7.60829,0.05849 11.41243,0c0.28868,-0.07383 0.54806,-0.20536 0.77812,-0.39458c-0.08456,0.30435 -0.28635,0.46516 -0.6052,0.48226c-3.94827,0.05849 -7.89645,0.05849 -11.84472,0c-0.38906,-0.16072 -0.66287,-0.43842 -0.82135,-0.833c-0.05767,-1.84136 -0.05767,-3.68272 0,-5.52409c0.01452,1.73947 0.05775,3.46386 0.12969,5.17335z" fill="#7e7e7e"/>
   </g>
   <g stroke="null" id="svg_81">
    <path stroke="null" id="svg_82" d="m21.54255,26.30517c0,1.75368 0,3.50736 0,5.26103c-0.00899,0.19317 -0.06657,0.36854 -0.17292,0.5261c-0.07245,0.02999 -0.10133,0.08839 -0.08646,0.17537c-0.23006,0.18922 -0.48944,0.32075 -0.77812,0.39458c-3.80414,0.05849 -7.60829,0.05849 -11.41243,0c-0.5497,-0.16265 -0.86674,-0.52794 -0.95104,-1.09605c0,-1.72448 0,-3.44887 0,-5.17335c0.08646,0 0.17292,0 0.25937,0c-0.02853,1.76893 0.00026,3.52261 0.08646,5.26103c0.09018,0.22412 0.2343,0.41413 0.43229,0.56995c3.91939,0.05849 7.83887,0.05849 11.75826,0c0.21614,-0.10233 0.37462,-0.26305 0.47552,-0.48226c0.04323,-1.75341 0.05767,-3.50709 0.04323,-5.26103c0.11525,-0.05849 0.23058,-0.11688 0.34583,-0.17537z" fill="#262727"/>
   </g>
   <g stroke="null" id="svg_83">
    <path stroke="null" id="svg_84" d="m21.36964,32.09231c0.10634,-0.15757 0.16392,-0.33294 0.17292,-0.5261c0.07193,-1.70949 0.11516,-3.43388 0.12969,-5.17335c0.05767,1.81216 0.05767,3.62424 0,5.4364c-0.08646,0.14617 -0.17292,0.29225 -0.25937,0.43842c-0.04012,-0.05208 -0.05455,-0.11057 -0.04323,-0.17537z" fill="#7c7e80"/>
   </g>
  </g>
  <path id="svg_88" d="m121.39499,161.37491l0.38197,0l0.11803,-0.54067l0.11803,0.54067l0.38197,0l-0.30902,0.33415l0.11804,0.54067l-0.30902,-0.33416l-0.30902,0.33416l0.11804,-0.54067l-0.30902,-0.33415z" stroke="#000" fill="#fff"/>
  <path id="svg_89" d="m489.545,30.29171l0.56913,0l0.17587,-0.38197l0.17587,0.38197l0.56913,0l-0.46044,0.23607l0.17588,0.38197l-0.46044,-0.23607l-0.46044,0.23607l0.17588,-0.38197l-0.46044,-0.23607z" stroke="#000" fill="#fff"/>
 </g>
</svg>